<svg width="32" height="41" viewBox="0 0 32 41" fill="none" xmlns="http://www.w3.org/2000/svg">
<path d="M28.8651 16.9156C28.5946 16.593 28.266 16.3855 27.9169 16.3168C27.5678 16.2482 27.2122 16.321 26.8907 16.5272L20.9084 20.327L17.4325 11.3763C17.2664 10.9584 17.0257 10.6109 16.7349 10.3691C16.4442 10.1274 16.1138 10 15.7773 10C15.4409 10 15.1105 10.1274 14.8197 10.3691C14.529 10.6109 14.2883 10.9584 14.1221 11.3763L10.6463 20.327L4.66394 16.5272C4.34178 16.3213 3.98573 16.2484 3.63605 16.3165C3.28638 16.3846 2.95701 16.5911 2.68519 16.9126C2.41337 17.2341 2.20993 17.6578 2.09788 18.1359C1.98583 18.6139 1.96963 19.1272 2.05111 19.6177L5.05409 37.9075C5.11151 38.2616 5.21866 38.5953 5.36905 38.8885C5.51943 39.1817 5.70992 39.4282 5.92898 39.6132C6.22554 39.8668 6.56463 40.001 6.91027 40.0016C7.07829 40.0011 7.24543 39.967 7.40682 39.9003C12.8805 37.7385 18.6623 37.7385 24.136 39.9003C24.6358 40.088 25.1673 39.9847 25.6139 39.6132C25.8343 39.4306 26.0258 39.1848 26.1764 38.8912C26.3269 38.5976 26.4333 38.2627 26.4888 37.9075L29.5036 19.6177C29.5841 19.1271 29.567 18.614 29.4542 18.1365C29.3414 17.659 29.1374 17.2361 28.8651 16.9156Z" fill="#FFAA00"/>
<circle cx="16" cy="3.74878" r="3.74878" fill="#FFAA00"/>
<circle cx="15.8116" cy="16.8116" r="2.81159" fill="#BE9502"/>
<circle cx="29.5893" cy="9.84055" r="2.34299" fill="#FFAA00"/>
<circle cx="2.41062" cy="9.84055" r="2.34299" fill="#FFAA00"/>
<circle cx="8.97098" cy="18.2754" r="1.40579" fill="#BE9502"/>
<circle cx="23.0288" cy="18.2754" r="1.40579" fill="#BE9502"/>
</svg>
