<svg width="56" height="56" viewBox="0 0 56 56" fill="none" xmlns="http://www.w3.org/2000/svg">
<circle cx="28" cy="28" r="28" fill="#FEF4F4"/>
<path d="M35.5 18.9375H20.5C18.2563 18.9375 16.4375 20.7563 16.4375 23V35.5C16.4375 37.7437 18.2563 39.5625 20.5 39.5625H35.5C37.7437 39.5625 39.5625 37.7437 39.5625 35.5V23C39.5625 20.7563 37.7437 18.9375 35.5 18.9375Z" stroke="#EC0000" stroke-width="1.5"/>
<path d="M21.4375 16.4375V20.8125" stroke="#EC0000" stroke-width="1.5" stroke-linecap="round"/>
<path d="M17.6875 24.5625H38.3125" stroke="#EC0000" stroke-width="1.5" stroke-linecap="round"/>
<path d="M35.1875 16.4375V20.8125" stroke="#EC0000" stroke-width="1.5" stroke-linecap="round"/>
<path d="M23.3125 30.5C23.8303 30.5 24.25 30.0803 24.25 29.5625C24.25 29.0447 23.8303 28.625 23.3125 28.625C22.7947 28.625 22.375 29.0447 22.375 29.5625C22.375 30.0803 22.7947 30.5 23.3125 30.5Z" fill="#EC0000"/>
<path d="M28.3125 30.5C28.8303 30.5 29.25 30.0803 29.25 29.5625C29.25 29.0447 28.8303 28.625 28.3125 28.625C27.7947 28.625 27.375 29.0447 27.375 29.5625C27.375 30.0803 27.7947 30.5 28.3125 30.5Z" fill="#EC0000"/>
<path d="M33.3125 30.5C33.8303 30.5 34.25 30.0803 34.25 29.5625C34.25 29.0447 33.8303 28.625 33.3125 28.625C32.7947 28.625 32.375 29.0447 32.375 29.5625C32.375 30.0803 32.7947 30.5 33.3125 30.5Z" fill="#EC0000"/>
<path d="M23.3125 35.5C23.8303 35.5 24.25 35.0803 24.25 34.5625C24.25 34.0447 23.8303 33.625 23.3125 33.625C22.7947 33.625 22.375 34.0447 22.375 34.5625C22.375 35.0803 22.7947 35.5 23.3125 35.5Z" fill="#EC0000"/>
<path d="M28.3125 35.5C28.8303 35.5 29.25 35.0803 29.25 34.5625C29.25 34.0447 28.8303 33.625 28.3125 33.625C27.7947 33.625 27.375 34.0447 27.375 34.5625C27.375 35.0803 27.7947 35.5 28.3125 35.5Z" fill="#EC0000"/>
<path d="M33.3125 35.5C33.8303 35.5 34.25 35.0803 34.25 34.5625C34.25 34.0447 33.8303 33.625 33.3125 33.625C32.7947 33.625 32.375 34.0447 32.375 34.5625C32.375 35.0803 32.7947 35.5 33.3125 35.5Z" fill="#EC0000"/>
</svg>
