<svg width="32" height="32" viewBox="0 0 32 32" fill="none" xmlns="http://www.w3.org/2000/svg">
<circle cx="16" cy="16" r="16" fill="#FEF4F4"/>
<path d="M18.6666 14.3333C18.6666 13.781 18.2189 13.3333 17.6666 13.3333C17.1143 13.3333 16.6666 13.781 16.6666 14.3333H18.6666ZM16.6666 20.1667C16.6666 20.719 17.1143 21.1667 17.6666 21.1667C18.2189 21.1667 18.6666 20.719 18.6666 20.1667H16.6666ZM15.3333 14.3333C15.3333 13.781 14.8855 13.3333 14.3333 13.3333C13.781 13.3333 13.3333 13.781 13.3333 14.3333L15.3333 14.3333ZM13.3333 20.1667C13.3333 20.719 13.781 21.1667 14.3333 21.1667C14.8855 21.1667 15.3333 20.719 15.3333 20.1667H13.3333ZM20.9999 11H21.9999C21.9999 10.4477 21.5522 10 20.9999 10V11ZM10.9999 11V10C10.4476 10 9.99992 10.4477 9.99992 11H10.9999ZM11.9097 23.3183L12.3637 22.4273L11.9097 23.3183ZM11.1816 22.59L10.2906 23.044L11.1816 22.59ZM20.8184 22.59L19.9274 22.136L20.8184 22.59ZM20.0897 23.3183L19.6357 22.4273L20.0897 23.3183ZM9.33325 10C8.78097 10 8.33325 10.4477 8.33325 11C8.33325 11.5523 8.78097 12 9.33325 12V10ZM22.6666 12C23.2189 12 23.6666 11.5523 23.6666 11C23.6666 10.4477 23.2189 10 22.6666 10V12ZM19.3333 11V12C19.8855 12 20.3333 11.5523 20.3333 11H19.3333ZM12.6666 11H11.6666C11.6666 11.5523 12.1143 12 12.6666 12V11ZM19.2063 9.52885L20.1302 9.14617L19.2063 9.52885ZM18.3044 8.62687L18.6871 7.70299L18.3044 8.62687ZM16.6666 14.3333V20.1667H18.6666V14.3333H16.6666ZM13.3333 14.3333L13.3333 20.1667H15.3333L15.3333 14.3333L13.3333 14.3333ZM19.9999 11V20.8333H21.9999V11H19.9999ZM18.3334 22.5H13.6667V24.5H18.3334V22.5ZM11.9999 20.8333V11H9.99992V20.8333H11.9999ZM10.9999 12H20.9999V10H10.9999V12ZM13.6667 22.5C13.1836 22.5 12.8812 22.4992 12.6533 22.4806C12.4371 22.4629 12.3775 22.4343 12.3637 22.4273L11.4558 24.2093C11.7985 24.384 12.1507 24.4462 12.4905 24.474C12.8186 24.5008 13.2165 24.5 13.6667 24.5V22.5ZM9.99992 20.8333C9.99992 21.2835 9.99914 21.6814 10.0259 22.0094C10.0537 22.3492 10.1159 22.7013 10.2906 23.044L12.0726 22.136C12.0656 22.1222 12.037 22.0627 12.0193 21.8466C12.0007 21.6188 11.9999 21.3165 11.9999 20.8333H9.99992ZM12.3637 22.4273C12.2384 22.3635 12.1366 22.2616 12.0726 22.136L10.2906 23.044C10.5462 23.5456 10.9538 23.9536 11.4558 24.2093L12.3637 22.4273ZM19.9999 20.8333C19.9999 21.3166 19.9992 21.6189 19.9806 21.8467C19.963 22.0629 19.9344 22.1224 19.9274 22.136L21.7094 23.044C21.8841 22.7012 21.9463 22.349 21.974 22.0093C22.0007 21.6813 21.9999 21.2834 21.9999 20.8333H19.9999ZM18.3334 24.5C18.7836 24.5 19.1814 24.5008 19.5094 24.474C19.8492 24.4462 20.2011 24.3839 20.5437 24.2093L19.6357 22.4273C19.6219 22.4344 19.5624 22.463 19.3464 22.4806C19.1188 22.4992 18.8166 22.5 18.3334 22.5V24.5ZM19.9274 22.136C19.8638 22.261 19.7617 22.3631 19.6357 22.4273L20.5437 24.2093C21.045 23.9539 21.4535 23.5463 21.7094 23.044L19.9274 22.136ZM9.33325 12H22.6666V10H9.33325V12ZM19.3333 10H12.6666V12H19.3333V10ZM15.1666 9.5H16.8333V7.5H15.1666V9.5ZM13.6666 11C13.6666 10.598 13.6671 10.3466 13.6801 10.1561C13.6925 9.97462 13.7128 9.92252 13.7173 9.91153L11.8696 9.14617C11.7473 9.44147 11.7041 9.73665 11.6848 10.02C11.666 10.2944 11.6666 10.6254 11.6666 11H13.6666ZM15.1666 7.5C14.792 7.5 14.4609 7.49946 14.1865 7.51818C13.9031 7.53751 13.6079 7.58066 13.3125 7.70299L14.0779 9.55075C14.0889 9.54621 14.141 9.52593 14.3226 9.51354C14.5132 9.50054 14.7646 9.5 15.1666 9.5V7.5ZM13.7173 9.91153C13.7851 9.74796 13.9148 9.61832 14.0779 9.55075L13.3125 7.70299C12.6589 7.97373 12.1401 8.49298 11.8696 9.14617L13.7173 9.91153ZM20.3333 11C20.3333 10.6253 20.3338 10.2943 20.315 10.0199C20.2957 9.73653 20.2525 9.4414 20.1302 9.14617L18.2824 9.91153C18.287 9.92258 18.3073 9.97474 18.3197 10.1562C18.3327 10.3467 18.3333 10.5981 18.3333 11H20.3333ZM16.8333 9.5C17.2352 9.5 17.4866 9.50054 17.6771 9.51354C17.8586 9.52592 17.9107 9.5462 17.9217 9.55075L18.6871 7.70299C18.3918 7.58067 18.0966 7.53751 17.8132 7.51818C17.5389 7.49946 17.2079 7.5 16.8333 7.5V9.5ZM20.1302 9.14617C19.8596 8.49284 19.3406 7.97367 18.6871 7.70299L17.9217 9.55075C18.085 9.61838 18.2147 9.7481 18.2824 9.91153L20.1302 9.14617Z" fill="#EC0000"/>
</svg>
