<svg width="442" height="595" viewBox="0 0 442 595" fill="none" xmlns="http://www.w3.org/2000/svg">
<path fill-rule="evenodd" clip-rule="evenodd" d="M2.74589 2.87479C6.45305 -32.2769 13.6302 -67.1319 24.2774 -101.135L374.866 -451.723C408.869 -462.37 443.724 -469.547 478.875 -473.255L2.74589 2.87479ZM167.745 448.888C182.089 462.44 196.998 475.05 212.394 486.717L962.717 -263.606C951.05 -279.002 938.441 -293.911 924.888 -308.255L167.745 448.888ZM321.784 550.7C303.114 542.589 284.812 533.365 266.979 523.027L999.027 -209.022C1009.37 -191.188 1018.59 -172.886 1026.7 -154.216L321.784 550.7ZM388.76 574.618C411.114 580.957 433.8 585.816 456.662 589.194L1065.19 -19.3381C1061.82 -42.2003 1056.96 -64.886 1050.62 -87.2404L388.76 574.618ZM633.215 586.014C603.014 591.597 572.427 594.571 541.814 594.937L1070.94 65.8133C1070.57 96.4263 1067.6 127.014 1062.01 157.214L633.215 586.014ZM768.272 541.851C820.978 516.408 870.379 481.825 914.102 438.102C957.825 394.379 992.408 344.978 1017.85 292.272L768.272 541.851ZM878.045 -352.307L123.694 402.045C110.977 386.803 99.239 371.02 88.4798 354.781L830.781 -387.521C847.021 -376.762 862.803 -365.024 878.045 -352.307ZM55.2624 297.104L773.104 -420.738C754.193 -430.104 734.844 -438.285 715.167 -445.28L30.7207 239.167C37.7155 258.843 45.896 278.193 55.2624 297.104ZM10.8703 168.123C5.92029 144.137 2.62665 119.876 0.989353 95.5257L571.526 -475.011C595.877 -473.374 620.137 -470.08 644.123 -465.13L10.8703 168.123Z" fill="#EC0000" fill-opacity="0.5"/>
</svg>
